<?xml version="1.0" encoding="UTF-8" standalone="no"?>
<!-- Created with Inkscape (http://www.inkscape.org/) -->

<svg
   xmlns:dc="http://purl.org/dc/elements/1.1/"
   xmlns:cc="http://creativecommons.org/ns#"
   xmlns:rdf="http://www.w3.org/1999/02/22-rdf-syntax-ns#"
   xmlns:svg="http://www.w3.org/2000/svg"
   xmlns="http://www.w3.org/2000/svg"
   xmlns:sodipodi="http://sodipodi.sourceforge.net/DTD/sodipodi-0.dtd"
   xmlns:inkscape="http://www.inkscape.org/namespaces/inkscape"
   id="svg4160"
   version="1.1"
   inkscape:version="0.91 r13725"
   xml:space="preserve"
   width="1063.75"
   height="393.75"
   viewBox="0 0 1063.75 393.75"
   sodipodi:docname="oddlogo.svg"><metadata
     id="metadata4166"><rdf:RDF><cc:Work
         rdf:about=""><dc:format>image/svg+xml</dc:format><dc:type
           rdf:resource="http://purl.org/dc/dcmitype/StillImage" /><dc:title></dc:title></cc:Work></rdf:RDF></metadata><defs
     id="defs4164"><clipPath
       clipPathUnits="userSpaceOnUse"
       id="clipPath4174"><path
         d="M 0,315 851,315 851,0 0,0 0,315 Z"
         id="path4176"
         inkscape:connector-curvature="0" /></clipPath></defs><sodipodi:namedview
     pagecolor="#ffffff"
     bordercolor="#666666"
     borderopacity="1"
     objecttolerance="10"
     gridtolerance="10"
     guidetolerance="10"
     inkscape:pageopacity="0"
     inkscape:pageshadow="2"
     inkscape:window-width="1609"
     inkscape:window-height="863"
     id="namedview4162"
     showgrid="false"
     inkscape:zoom="0.93160987"
     inkscape:cx="531.875"
     inkscape:cy="196.875"
     inkscape:window-x="0"
     inkscape:window-y="0"
     inkscape:window-maximized="0"
     inkscape:current-layer="g4168" /><g
     id="g4168"
     inkscape:groupmode="layer"
     inkscape:label="oddlogo"
     transform="matrix(1.25,0,0,-1.25,0,393.75)"><g
       id="g4170"><g
         id="g4172"
         clip-path="url(#clipPath4174)"><path
           d="m 423.1,259.111 3.001,0 0,-1.971 -3.001,0 0,1.971 z m 3.978,0 3.013,0 0,-1.971 -3.013,0 0,1.971 z m 3.754,0 3.457,0 0,-1.971 -3.457,0 0,1.971 z m 3.993,0 3.445,0 0,-1.971 -3.445,0 0,1.971 z m 156.581,-78.599 c 0,0.568 0.474,1.034 1.062,1.034 0.563,0 1.041,-0.466 1.041,-1.034 l 0,-2.706 -2.103,0 0,2.706 z m 130.992,5.347 -23.315,-13.337 -0.086,-0.03 -1.856,1.743 25.257,11.624 z m 22.762,13.209 0,-0.177 -16.314,-9.337 -24.621,-11.347 40.935,20.861 z m 0,-1.576 -2.447,-1.549 -7.089,-3.264 9.536,5.457 0,-0.644 z m 0,-2.384 -2.601,-1.261 2.601,1.843 0,-0.582 z m 0,-1.498 -2.134,-1.164 2.134,1.723 0,-0.559 z m 0,-5.57 -0.108,-0.279 -1.442,-1.066 1.55,2.473 0,-1.128 z m 0,-3.27 -0.276,-1.55 -1.323,-1.084 1.599,4.1 0,-1.466 z m 0,-10.081 -1.496,-2.013 0.933,5.234 0.563,0.554 0,-3.775 z m 0,-5.332 -3.709,-8.938 1.95,10.81 1.759,2.362 0,-4.234 z m 0,-16.378 -4.314,4.016 0.069,0.397 4.245,10.248 0,-14.661 z m -5.231,3.74 -1.902,-1.447 -3.492,3.907 0.117,0.312 7.859,10.56 -2.24,-12.487 -0.342,-0.845 z m -6.962,1.609 -0.782,-0.704 -3.942,4.463 10.845,10.499 -5.017,-12.777 -1.104,-1.481 z m -7.265,2.21 -3.201,3.59 12.561,10.247 -7.693,-12.224 -1.667,-1.613 z m -5.685,2.724 -3.043,3.075 16.323,11.975 -12.271,-14.309 -1.009,-0.741 z m -5.221,2.282 -2.032,2.11 16.44,11.183 -14.192,-13.125 -0.216,-0.168 z m -4.151,1.629 -2.285,1.92 19.204,11.719 -16.814,-13.559 -0.105,-0.08 z m -4.768,1.67 -1.661,1.589 18.742,10.267 -16.269,-11.565 -0.812,-0.291 z m 22.656,18.115 -20.225,-9.909 20.866,11.939 9.365,4.315 -10.006,-6.345 z m 10.397,5.106 -4.952,-2.431 9.069,5.735 1.55,0.724 -5.667,-4.028 z m 0.851,-1.396 -7.344,-4.024 6.816,4.841 3.94,1.937 -3.412,-2.754 z m 1.32,-0.827 -5.338,-3.269 4.377,3.541 3.093,1.695 -2.132,-1.967 z m 0.632,-1.698 -5.651,-3.84 5.409,5.004 2.589,1.574 -2.347,-2.738 z m 0.426,-2.512 -4.636,-3.397 4.651,5.423 2.198,1.49 -2.213,-3.516 z m 0.347,-4.347 -4.756,-3.87 4.904,7.767 1.945,1.436 -2.093,-5.333 z m -1.7,-6.121 2.253,5.733 1.649,1.338 -0.723,-3.992 -3.179,-3.079 z m -0.577,-1.476 3.558,3.441 -1.008,-5.626 -7.222,-9.691 4.672,11.876 z m -3.569,1.985 5.365,4.378 -2.352,-5.992 -10.301,-9.97 7.288,11.584 z m -1.025,4.359 5.564,4.085 -5.044,-8.009 -12.945,-10.553 12.425,14.477 z m -2.787,1.281 7.256,4.935 -4.914,-5.726 -15.502,-11.387 13.16,12.178 z m -1,2.105 6.804,4.156 -6.211,-5.74 -16.318,-11.099 15.725,12.683 z m -4.309,0.54 -18.774,-10.286 20.089,12.718 6.768,3.318 -8.083,-5.75 z m 0.326,-0.564 9.034,4.942 -5.426,-4.362 -19.728,-12.035 16.12,11.455 z m -27.489,-10.96 23.038,11.296 -20.965,-13.276 -2.073,1.98 z m 48.98,-4.801 4.251,-10.24 0.073,-0.397 -4.324,-4.016 0,14.653 z m 0,5.959 1.772,-2.362 1.942,-10.821 -3.714,8.944 0,4.239 z m 0,4.873 0.558,-0.545 0.946,-5.243 -1.504,2.013 0,3.775 z m 0,7.766 1.614,-4.094 -1.333,1.084 -0.281,1.545 0,1.465 z m 0,2.938 1.559,-2.473 -1.445,1.066 -0.114,0.279 0,1.128 z m 0,5.001 2.132,-1.723 -2.132,1.164 0,0.559 z m 0,1.521 2.604,-1.843 -2.604,1.261 0,0.582 z m 0,2.442 9.538,-5.447 -7.092,3.258 -2.446,1.549 0,0.64 z m 0,0.936 40.412,-20.589 0,-0.018 -24.085,11.088 -16.327,9.342 0,0.177 z m 40.412,-23.297 -17.631,10.088 17.631,-8.116 0,-1.972 z m 0,-3.858 -18.667,11.816 18.667,-9.158 0,-2.658 z m 0,-2 -1.121,-1.07 -0.815,0.281 -16.263,11.575 18.199,-9.97 0,-0.816 z m -5.903,-2.74 -0.104,0.08 -16.816,13.566 19.207,-11.726 -2.287,-1.92 z m -4.141,-1.629 -0.223,0.168 -14.188,13.13 16.446,-11.188 -2.035,-2.11 z m -5.22,-2.282 -1.015,0.747 -12.272,14.303 16.324,-11.975 -3.037,-3.075 z m -5.681,-2.724 -1.679,1.613 -7.692,12.224 12.567,-10.247 -3.196,-3.59 z m -6.49,-2.914 -0.786,0.704 -1.1,1.471 -5.015,12.787 10.844,-10.499 -3.943,-4.463 z m -8.041,16.067 4.659,-11.88 -7.213,9.682 -1.01,5.635 3.564,-3.437 z m -0.585,1.472 -3.178,3.073 -0.724,3.998 1.655,-1.338 2.247,-5.733 z m 3.051,2.257 -4.748,3.864 -2.096,5.328 1.957,-1.431 4.887,-7.761 z m -4.411,10.231 4.652,-5.417 -4.634,3.397 -2.218,3.516 2.2,-1.496 z m 0.677,1.66 5.419,-5.008 -5.654,3.84 -2.359,2.753 2.594,-1.585 z m 5.745,-2.739 -5.353,3.269 -2.139,1.975 3.102,-1.698 4.39,-3.546 z m 3.314,0.072 -7.354,4.024 -3.413,2.754 3.952,-1.937 6.815,-4.841 z m -1.526,2.984 -4.972,2.432 -5.666,4.032 1.555,-0.724 9.083,-5.74 z m -4.585,3.68 9.365,-4.312 20.876,-11.947 -20.233,9.909 -10.008,6.35 z m 2.926,-3.601 6.783,-3.323 20.074,-12.713 -18.756,10.281 -8.101,5.755 z m -1.282,-1.372 9.037,-4.942 16.117,-11.455 -19.731,12.035 -5.423,4.362 z m -1.764,-0.757 6.816,-4.155 15.745,-12.698 -16.341,11.108 -6.22,5.745 z m -1.44,-1.329 7.262,-4.937 13.161,-12.178 -15.515,11.387 -4.908,5.728 z m 10.742,-22.161 -10.298,9.965 -2.361,5.997 5.359,-4.368 7.3,-11.594 z m -11.842,20.028 5.573,-4.093 12.414,-14.464 -12.941,10.548 -5.046,8.009 z m 3.181,-28.844 -1.898,1.447 -0.352,0.845 -2.245,12.482 7.871,-10.555 0.124,-0.312 -3.5,-3.907 z m 94.507,-37.03 0,14.482 -16.012,0 0,15.678 c 2.506,5.577 5.064,11.208 5.267,11.481 0.39,0.546 4.603,3.813 -2.12,4.596 -0.744,0.084 -1.83,0.282 -3.147,0.559 l 0,16.84 -17.121,0 0,-6.934 -2.094,0 0,36.786 -26.005,0 0,-32.507 -40.412,20.583 0,3.243 -1.251,0 0,-0.43 -1.686,0 0,0.43 -1.259,0 0,-3.243 -49,-24.961 c -2.964,-0.858 -33.386,-9.627 -39.778,-10.366 -6.73,-0.783 -2.501,-4.05 -2.115,-4.596 0.237,-0.331 3.947,-8.553 6.838,-14.987 l -4.436,0 0,-2.757 -0.506,0 0,0.283 -3.156,0 0,1.87 -0.271,0 0,-1.87 -0.953,0 0,-0.283 -0.956,0 0,4.19 0.212,0 0,0.242 -0.614,0 0,0.139 -0.591,0.417 0,0.815 -0.234,0 0,0.338 0.234,0 0,0.951 -0.234,0 0,0.341 0.234,0 0,0.952 -0.234,0 0,0.341 0.234,0 0,0.95 -0.234,0 0,0.343 0.234,0 0,0.956 -0.234,0 0,0.34 0.234,0 0,0.957 -0.234,0 0,0.331 0.234,0 0,0.95 -0.234,0 0,0.343 0.234,0 0,0.955 -0.234,0 0,0.344 0.234,0 0,0.945 -0.234,0 0,0.34 0.234,0 0,0.961 -0.234,0 0,0.337 0.234,0 0,0.961 -0.234,0 0,0.334 0.234,0 0,0.949 -0.234,0 0,0.342 0.234,0 0,0.956 -0.234,0 0,0.336 0.234,0 0,0.956 -0.234,0 0,0.349 0.234,0 0,0.944 -0.234,0 0,0.343 0.234,0 0,0.95 -0.234,0 0,0.203 0.575,0 0,0.292 -0.365,0 0,0.288 0.103,0 0,1 0.083,0 0.179,1.475 0.352,0.287 0,0.362 0.336,0 0,0.361 -2.937,0 0,0.788 0.229,0.059 0,0.14 0.093,0 0,0.237 -1.887,0 0,0.436 -0.357,0.122 0,0.8 0.229,0 0,0.539 -0.462,0 0,0.42 0.343,0.229 0,0.054 0.119,0 0,0.386 -0.462,0 0,1.16 0.297,0.296 0,0.054 0.155,0 0,0.332 -0.452,0 0,0.752 0.396,0.115 0,0.214 0.229,0 0,0.113 0.213,0.091 0,0.053 0.106,0 -0.265,0.363 -0.092,0 c -0.004,1.019 -0.837,1.85 -1.864,1.85 l -0.556,0 0,0.125 -0.989,0 c -0.377,1.392 -1.401,2.489 -2.732,2.927 -0.186,0.257 -0.472,0.457 -0.808,0.624 l 0,0.351 0.121,0.094 0,0.084 0.078,0 0,0.081 -0.354,0 0,0.399 0.217,0.16 0,0.009 0.179,0 0,0.226 -0.101,0 0,0.12 -1.38,0.596 -0.227,0 c -0.008,0.043 -0.044,0.099 -0.092,0.099 l -0.245,0 0,1.47 c 0.025,0.016 0.059,0.029 0.059,0.06 0,0.051 -0.044,0.094 -0.098,0.094 -0.048,0 -0.099,-0.043 -0.099,-0.094 0,-0.036 0.035,-0.055 0.059,-0.065 l 0,-1.465 -0.235,0 c -0.062,0 -0.092,-0.056 -0.098,-0.099 l -0.223,0 -1.39,-0.596 0,-0.12 -0.091,0 0,-0.226 0.169,0 0,-0.009 0.235,-0.164 0,-0.395 -0.369,0 0,-0.081 0.08,0 0,-0.084 0.128,-0.099 0,-0.346 c -0.338,-0.167 -0.637,-0.367 -0.805,-0.624 -1.339,-0.438 -2.362,-1.535 -2.743,-2.927 l -0.743,0 0,-0.125 -0.545,0 c -1.026,0 -1.859,-0.831 -1.865,-1.85 l -0.107,0 -0.257,-0.363 0.107,0 0,-0.053 0.215,-0.091 0,-0.113 0.226,0 0,-0.214 0.396,-0.115 0,-0.752 -0.45,0 0,-0.332 0.164,0 0,-0.054 0.286,-0.296 0,-1.16 -0.464,0 0,-0.386 0.124,0 0,-0.054 0.34,-0.22 0,-0.429 -0.459,0 0,-0.539 0.227,0 0,-0.792 -0.361,-0.13 0,-0.436 -1.887,0 0,-0.237 0.085,0 0,-0.14 0.247,-0.059 0,-0.931 -1.467,0 0,-0.218 -1.4,0 0,-0.297 -7.579,0 0,0.297 -1.741,0 0,-0.297 -7.574,0 0,0.297 -1.743,0 0,-0.297 -7.593,0 0,0.297 -0.413,0 1.316,2.526 0,0.303 0.109,0 0,0.222 -1.674,0 0,0.185 -0.476,0 0,0.498 -0.213,0 0,0.574 -0.338,0.259 0,1.357 0.166,0.129 0,0.153 0.118,0 0,0.178 -0.62,0 0,0.536 c 0,0.038 -0.03,0.064 -0.074,0.064 l -0.06,0 0,0.757 0.039,0 c 0.039,0 0.095,0.04 0.095,0.084 l 0,0.491 c 0,0.044 -0.056,0.093 -0.095,0.093 l -0.242,0 0,1.277 0.228,0.407 0,0.039 0.064,0 0,0.164 -0.192,0 0,1.115 0.083,0 0,0.341 0.209,0.124 0,0.16 0.073,0 0,0.177 0.183,0.094 0,0.057 0.106,0 0,0.092 -0.328,0 0,0.504 c 0,0.13 -0.115,0.238 -0.251,0.238 l -1.117,0 0,1.129 c 0.2,0.085 0.332,0.2 0.332,0.358 0,0.209 -0.283,0.351 -0.608,0.42 -0.361,0.895 -1.361,1.561 -2.579,1.566 l 0,0.064 c 0,0.07 -0.055,0.118 -0.125,0.118 l 0,2.075 c 0.024,0.025 0.07,0.03 0.07,0.066 0,0.078 -0.07,0.152 -0.154,0.152 -0.075,0 -0.143,-0.074 -0.143,-0.152 0,-0.041 0.04,-0.051 0.068,-0.069 l 0,-2.072 -0.003,0 c -0.065,0 -0.116,-0.048 -0.116,-0.118 l 0,-0.083 c 0,-0.016 0.02,-0.016 0.02,-0.026 -0.929,-0.099 -1.722,-0.557 -2.125,-1.219 l 0,0.986 -0.297,0 0,0.249 -0.766,0 0,6.511 0.167,0 0.115,0.397 c 0.252,0.124 0.436,0.271 0.436,0.445 0,0.203 -0.229,0.391 -0.58,0.516 l 0,0.624 0.538,0.282 0,0.233 0.18,0 0,0.187 -1.807,0 0,2.641 0.277,0.221 0,0.185 0.144,0.077 0,0.062 c 0.118,0.029 0.199,0.074 0.199,0.119 0,0.064 -0.178,0.123 -0.448,0.168 -0.105,0.422 -0.377,0.742 -0.743,0.857 0,0.02 0.009,0.039 0.009,0.059 0,4.57 -2.865,8.41 -6.749,9.638 0.025,0.065 0.086,0.113 0.086,0.187 0,0.198 -0.091,0.368 -0.218,0.5 0.249,0.173 0.487,0.427 0.487,0.427 l -0.073,0.137 c 0,0 0.065,-0.004 0.241,0.145 0.181,0.147 0.23,0.094 0.23,0.094 l 0,0.119 -0.352,0.075 0.044,0.139 0.164,0.09 -0.086,0.103 0.086,0.113 c 0,0 -0.158,0 -0.435,0.163 -0.144,0.079 -0.292,0.133 -0.407,0.159 l 0,1.793 0.233,0.182 0,0.095 0.089,0 0,0.095 -0.238,0 0,0.36 0.266,0 0,0.37 0.221,0.101 0,0.098 0.107,0 0,0.089 -0.465,0 0,0.234 0.228,0.203 0,0.094 0.094,0 0,0.099 -0.318,0 c -0.004,0.585 -0.421,1.055 -0.929,1.07 l 0,0.016 -0.54,0 c -0.217,0.306 -0.53,0.509 -0.898,0.584 l 0,0.015 c 0,0.046 -0.043,0.062 -0.073,0.079 l 0,1.946 c 0.144,0.024 0.271,0.069 0.271,0.149 0,0.087 -0.167,0.159 -0.371,0.178 l 0,0.425 -0.104,0 0,-0.425 c -0.206,-0.019 -0.371,-0.091 -0.371,-0.178 0,-0.08 0.13,-0.125 0.276,-0.149 l 0,-1.946 c -0.032,-0.017 -0.073,-0.033 -0.073,-0.079 l 0,-0.005 c -0.374,-0.066 -0.697,-0.273 -0.927,-0.594 l -0.537,0 0,-0.016 c -0.517,-0.02 -0.937,-0.49 -0.937,-1.07 l -0.317,0 0,-0.099 0.099,0 0,-0.094 0.221,-0.203 0,-0.234 -0.464,0 0,-0.089 0.109,0 0,-0.098 0.218,-0.103 0,-0.368 0.266,0 0,-0.36 -0.237,0 0,-0.095 0.093,0 0,-0.095 0.228,-0.177 0,-1.798 c -0.111,-0.026 -0.261,-0.08 -0.406,-0.159 -0.276,-0.163 -0.435,-0.163 -0.435,-0.163 l 0.084,-0.113 -0.084,-0.103 0.164,-0.09 0.045,-0.139 -0.353,-0.075 0,-0.119 c 0,0 0.046,0.053 0.228,-0.094 0.184,-0.149 0.244,-0.145 0.244,-0.145 l -0.078,-0.137 c 0,0 0.241,-0.254 0.5,-0.427 -0.137,-0.132 -0.226,-0.302 -0.226,-0.5 0,-0.074 0.061,-0.122 0.081,-0.183 -3.878,-1.232 -6.74,-5.072 -6.74,-9.642 0,-0.02 0.004,-0.039 0.004,-0.059 -0.364,-0.115 -0.637,-0.435 -0.74,-0.857 -0.27,-0.045 -0.448,-0.104 -0.448,-0.168 0,-0.045 0.077,-0.09 0.205,-0.119 l 0,-0.062 0.143,-0.077 0,-0.185 0.28,-0.221 0,-2.641 -1.818,0 0,-0.187 0.194,0 0,-0.233 0.525,-0.282 0,-0.624 c -0.353,-0.125 -0.575,-0.313 -0.575,-0.516 0,-0.174 0.179,-0.321 0.433,-0.445 l 0.117,-0.397 0.162,0 0,-6.511 -1.113,0 0,-0.249 -0.298,0 0,-0.565 c -0.441,0.437 -1.06,0.719 -1.777,0.798 0.005,0.01 0.02,0.01 0.02,0.026 l 0,0.083 c 0,0.07 -0.036,0.118 -0.115,0.118 l 0,2.075 c 0.036,0.025 0.079,0.03 0.079,0.066 0,0.078 -0.079,0.152 -0.157,0.152 -0.089,0 -0.158,-0.074 -0.158,-0.152 0,-0.036 0.051,-0.041 0.074,-0.066 l 0,-2.075 -0.005,0 c -0.059,0 -0.11,-0.048 -0.11,-0.118 l 0,-0.064 c -0.02,0 -0.043,-0.005 -0.064,-0.005 l 0,-0.525 c -0.418,-0.273 -0.782,-0.6 -0.954,-1.036 -0.329,-0.069 -0.595,-0.211 -0.595,-0.42 0,-0.158 0.132,-0.273 0.321,-0.358 l 0,-1.129 -1.119,0 c -0.129,0 -0.244,-0.108 -0.244,-0.238 l 0,-0.504 -0.321,0 0,-0.092 0.103,0 0,-0.057 0.185,-0.094 0,-0.177 0.068,0 0,-0.16 0.204,-0.124 0,-0.341 0.093,0 0,-1.115 -0.197,0 0,-0.164 0.068,0 0,-0.039 0.223,-0.407 0,-1.277 -0.242,0 c -0.049,0 -0.084,-0.049 -0.084,-0.093 l 0,-0.491 c 0,-0.044 0.035,-0.084 0.084,-0.084 l 0.045,0 0,-0.757 -0.064,0 c -0.035,0 -0.065,-0.026 -0.065,-0.064 l 0,-0.536 -0.618,0 0,-0.178 0.108,0 0,-0.153 0.167,-0.135 0,-1.351 -0.336,-0.259 0,-0.574 -0.206,0 0,-0.498 -0.471,0 0,-0.185 -1.668,0 0,-0.222 0.112,0 0,-0.303 1.308,-2.526 -0.417,0 0,-0.297 -7.552,0 0,0.297 -1.724,0 0,-0.297 -7.547,0 0,0.297 -1.725,0 0,-0.297 -7.536,0 0,0.297 -1.401,0 0,0.218 -1.443,0 0,0.931 0.226,0.059 0,0.14 0.091,0 0,0.237 -1.876,0 0,0.436 -0.362,0.122 0,0.8 0.219,0 0,0.539 -0.449,0 0,0.42 0.338,0.229 0,0.054 0.128,0 0,0.386 -0.466,0 0,1.15 0.288,0.306 0,0.054 0.161,0 0,0.332 -0.449,0 0,0.752 0.394,0.115 0,0.214 0.226,0 0,0.113 0.207,0.091 0,0.053 0.112,0 -0.254,0.363 -0.093,0 c -0.006,1.019 -0.846,1.85 -1.874,1.85 l -0.543,0 0,0.125 -0.734,0 c -0.372,1.392 -1.402,2.489 -2.717,2.937 -0.185,0.247 -0.467,0.447 -0.804,0.614 l 0,0.346 0.121,0.099 0,0.084 0.073,0 0,0.081 -0.353,0 0,0.395 0.224,0.164 0,0.009 0.173,0 0,0.226 -0.088,0 0,0.12 -1.382,0.596 -0.222,0 c 0,0.043 -0.052,0.099 -0.1,0.099 l -0.238,0 0,1.465 c 0.026,0.01 0.055,0.029 0.055,0.065 0,0.051 -0.04,0.094 -0.096,0.094 -0.048,0 -0.098,-0.043 -0.098,-0.094 0,-0.036 0.044,-0.044 0.059,-0.06 l 0,-1.47 -0.225,0 c -0.066,0 -0.102,-0.056 -0.112,-0.099 l -0.217,0 -1.376,-0.596 0,-0.12 -0.102,0 0,-0.226 0.181,0 0,-0.009 0.223,-0.16 0,-0.399 -0.364,0 0,-0.081 0.069,0 0,-0.084 0.131,-0.099 0,-0.346 c -0.332,-0.167 -0.629,-0.367 -0.802,-0.624 -1.314,-0.438 -2.345,-1.535 -2.721,-2.927 l -0.99,0 0,-0.125 -0.54,0 c -1.013,0 -1.857,-0.831 -1.861,-1.85 l -0.094,0 -0.252,-0.363 0.108,0 0,-0.053 0.212,-0.091 0,-0.113 0.229,0 0,-0.214 0.383,-0.115 0,-0.752 -0.447,0 0,-0.332 0.164,0 0,-0.054 0.283,-0.306 0,-1.15 -0.463,0 0,-0.386 0.13,0 0,-0.054 0.333,-0.229 0,-0.42 -0.457,0 0,-0.539 0.229,0 0,-0.792 -0.364,-0.13 0,-0.436 -1.875,0 0,-0.237 0.089,0 0,-0.14 0.227,-0.059 0,-0.788 -2.917,0 0,-0.361 0.332,0 0,-0.362 0.365,-0.287 0.169,-1.475 0.096,0 0,-1 0.102,0 0,-0.288 -0.367,0 0,-0.292 0.57,0 0,-0.203 -0.244,0 0,-0.95 0.244,0 0,-0.343 -0.244,0 0,-0.944 0.244,0 0,-0.349 -0.244,0 0,-0.956 0.244,0 0,-0.336 -0.244,0 0,-0.956 0.244,0 0,-0.342 -0.244,0 0,-0.949 0.244,0 0,-0.334 -0.244,0 0,-0.961 0.244,0 0,-0.337 -0.244,0 0,-0.961 0.244,0 0,-0.34 -0.244,0 0,-0.945 0.244,0 0,-0.344 -0.244,0 0,-0.955 0.244,0 0,-0.343 -0.244,0 0,-0.95 0.244,0 0,-0.331 -0.244,0 0,-0.957 0.244,0 0,-0.34 -0.244,0 0,-0.244 -3.362,0 0,3.863 -1.252,0 0,6.498 0.861,0 c 0.155,0 0.28,0.115 0.28,0.256 l 0,0.573 c 0,0.131 -0.125,0.256 -0.28,0.256 l -0.861,0 0,11.236 0.861,0 c 0.155,0 0.28,0.114 0.28,0.259 l 0,0.57 c 0,0.134 -0.125,0.253 -0.28,0.253 l -0.861,0 0,11.241 0.861,0 c 0.155,0 0.28,0.114 0.28,0.259 l 0,0.558 c 0,0.139 -0.125,0.258 -0.28,0.258 l -0.861,0 0,11.248 0.861,0 c 0.155,0 0.28,0.113 0.28,0.257 l 0,0.56 c 0,0.141 -0.125,0.257 -0.28,0.257 l -0.861,0 0,11.247 0.861,0 c 0.155,0 0.28,0.115 0.28,0.261 l 0,0.558 c 0,0.137 -0.125,0.256 -0.28,0.256 l -0.861,0 0,11.241 0.861,0 c 0.155,0 0.28,0.119 0.28,0.259 l 0,0.563 c 0,0.14 -0.125,0.258 -0.28,0.258 l -0.861,0 0,6.662 c 0,0.397 -0.356,0.724 -0.787,0.724 l -6.828,0 c -0.435,0 -0.78,-0.327 -0.78,-0.724 l 0,-0.099 -2.084,0 0,1.639 -1.009,0 0,-1.639 -4.76,0 0,1.639 -1.015,0 0,-1.639 -2.859,0 0,6.078 -2.494,0 0,0.651 -1.399,0 0,8.613 c 0,2.393 -2.133,4.357 -4.743,4.357 -1.324,0 -2.513,-0.499 -3.379,-1.301 -0.536,0.268 -1.11,0.471 -1.763,0.471 -2.024,0 -3.694,-1.521 -3.694,-3.388 l 0,-2.094 -0.827,0 0,-1.016 -0.649,0 0,-6.76 -2.12,0 0,0.575 -1.085,0 0,-0.575 -1.737,0 0,0.575 -1.082,0 0,-0.575 -1.648,0 0,-3.972 -0.831,0 0,-1.222 -4.751,0 0,1.222 -1.019,0 0,-1.222 -1.492,0 0,27.317 -25.544,0 0,0.747 0.736,0 0,4.789 -15.283,0 0,-4.789 0.691,0 0,-0.747 -10.401,0 0,0.613 -1.77,0 0,-0.613 -4.359,0 0,4.289 -0.448,0 0,-4.289 -4.914,0 0,-2.061 -0.729,0 0,-0.683 0.729,0 0,-17.838 -0.729,0 0,-0.67 0.729,0 0,-2.074 -0.729,0 0,-0.681 0.729,0 0,-2.078 -0.729,0 0,-0.679 0.729,0 0,-2.07 -0.729,0 0,-0.684 0.729,0 0,-2.084 -0.729,0 0,-0.668 0.729,0 0,-2.081 -0.729,0 0,-0.677 0.729,0 0,-2.081 -0.729,0 0,-0.679 0.729,0 0,-2.079 -0.729,0 0,-0.686 0.729,0 0,-2.074 -0.729,0 0,-0.673 0.729,0 0,-2.08 -0.729,0 0,-0.679 0.729,0 0,-2.07 -0.729,0 0,-0.684 0.729,0 0,-2.079 -0.729,0 0,-0.668 0.729,0 0,-2.091 -0.729,0 0,-0.672 0.729,0 0,-2.087 -0.729,0 0,-0.673 0.729,0 0,-2.075 -0.729,0 0,-0.678 0.729,0 0,-2.081 -0.729,0 0,-0.678 0.729,0 0,-2.081 -0.729,0 0,-0.678 0.729,0 0,-2.074 -0.729,0 0,-0.68 0.729,0 0,-2.084 -0.729,0 0,-0.674 0.729,0 0,-2.075 -0.729,0 0,-0.678 0.729,0 0,-2.076 -0.729,0 0,-0.682 0.729,0 0,-2.076 -0.729,0 0,-0.679 0.729,0 0,-2.08 -0.729,0 0,-0.674 0.729,0 0,-2.08 -0.729,0 0,-0.677 0.729,0 0,-2.081 -0.729,0 0,-0.678 0.729,0 0,-2.081 -0.729,0 0,-0.672 0.729,0 0,-2.081 -0.729,0 0,-0.68 0.729,0 0,-2.078 -0.729,0 0,-0.681 0.729,0 0,-2.073 -0.729,0 0,-0.674 0.729,0 0,-2.085 -0.729,0 0,-0.679 0.729,0 0,-2.074 -0.729,0 0,-0.668 0.729,0 0,-2.091 -0.729,0 0,-0.679 0.729,0 0,-2.075 -0.729,0 0,-0.678 0.729,0 0,-2.081 -0.729,0 0,-0.673 0.729,0 0,-2.079 -0.729,0 0,-0.681 0.729,0 0,-2.078 -0.729,0 0,-0.68 0.729,0 0,-2.08 -0.729,0 0,-0.678 0.729,0 0,-2.079 -0.729,0 0,-0.675 0.729,0 0,-2.08 -0.729,0 0,-0.683 0.729,0 0,-1.49 -3.778,0 0,77.126 -2.328,0 0,6.285 -3.3,0 0,3.882 -2.139,0 0,3.939 -4.052,0 0,1.444 -3.412,0 0,3.818 -4.223,0 0,4.512 -3.096,0 0,0.707 -0.841,0 0,4.805 -0.348,0 0,0.322 -1.921,0 0,1.115 -2.822,0 0,-1.115 -1.933,0 0,-0.322 -0.351,0 0,-4.805 -0.832,0 0,-0.707 -3.095,0 0,-4.512 -4.235,0 0,-3.818 -3.403,0 0,-1.444 -4.056,0 0,-3.939 -2.134,0 0,-3.882 -3.308,0 0,-6.285 -2.338,0 0,-45.371 -1.693,0 0,-0.813 -0.932,0 0,0.813 -0.574,0 0,95.44 -1.824,0 0,0.551 -8.373,0 0,1.143 -1.16,0 0,-1.143 -8.815,0 0,1.143 -1.138,0 0,-1.143 -8.826,0 0,1.143 -1.134,0 0,-1.143 -8.831,0 0,1.143 -1.138,0 0,-1.143 -8.391,0 0,-0.551 -1.817,0 0,-8.23 -6.177,0 0,-11.223 0.7,0 0,-2.19 -0.7,0 0,-3.664 0.7,0 0,-2.199 -0.7,0 0,-3.661 0.7,0 0,-2.197 -0.7,0 0,-3.657 0.7,0 0,-2.208 -0.7,0 0,-3.654 0.7,0 0,-2.199 -0.7,0 0,-3.664 0.7,0 0,-2.196 -0.7,0 0,-1.732 -7.313,0 0,2.05 -7.747,0 0,1.827 -0.811,0 0,-1.827 -2.249,0 0,-2.05 -3.467,0 0,-52.121 -3.868,0 0,28.84 -3.076,0 0,125.08 -8.483,0 0,1.435 -0.818,0 0,0.809 -0.648,0 0,-0.809 -1.07,0 0,0.724 -2.595,0 0,-0.724 -4.888,0 0,0.644 -5.627,0 0,0.734 -6.596,0 0,-1.378 -0.728,0 0,2.521 -0.337,0 0,-2.521 -2.035,0 0,-1.435 -7.171,0 0,-176.32 -2.585,0 0,89.218 -2.834,0 0,0.675 -11.594,0 0,-0.675 -2.975,0 0,5.985 -1.53,0 0,1.085 -2.155,0 0,-0.719 -4.045,0 0,-0.366 -1.531,0 0,0.729 -0.813,0 0,0.716 -0.351,0 0,-0.716 -3.423,0 0,-0.729 -2.344,0 0,-5.985 -9.483,0 0,-89.218 -1.668,0 0,3.273 0.771,0 0,9.875 -5.897,0 0,3.457 -1.283,0 0,2.848 0.812,0 0,66.305 c -0.481,0.07 -0.956,0.099 -1.446,0.154 l 0,4.997 c -1.625,0.198 -3.248,0.354 -4.873,0.529 l 0,2.63 c -15.78,2.186 -31.058,2.438 -47.277,2.056 -1.526,-0.035 -1.867,-1.615 -1.867,-2.328 l 0,-5.265 c -0.481,-0.005 -0.965,0.01 -1.441,0.005 l 0,-8.802 -3.24,-3.163 0,-1.393 -7.443,0 -1.218,-4.515 0,-51.21 0.811,0 0,-2.848 -7.806,0 0,20.805 -5.387,0 0,0.461 1.01,0 0,1.923 -1.01,0 0,1.92 1.01,0 0,1.912 -1.01,0 0,1.926 1.01,0 0,1.908 -1.01,0 0,2.363 -1.639,0 0,2.484 -0.634,0 0,-2.095 -5.121,0 0,-0.389 -8.132,0 0,0.439 -0.728,0 0,0.7 -0.228,0 0,1.069 -0.878,0 0,-1.069 -0.92,0 0,0.434 -2.487,0 0,-0.434 -1.341,0 0,-0.7 -7.117,0 0,-0.439 -1.902,0 0,-2.363 -1.026,0 0,-1.908 1.026,0 0,-1.926 -1.026,0 0,-1.912 1.026,0 0,-1.92 -1.026,0 0,-1.923 1.026,0 0,-1.91 -1.026,0 0,-1.933 1.026,0 0,-1.902 -1.026,0 0,-1.92 1.026,0 0,-1.922 -1.026,0 0,-1.918 1.026,0 0,-1.916 -1.026,0 0,-1.916 1.026,0 0,-1.923 -1.026,0 0,-1.916 1.026,0 0,-1.916 -1.026,0 0,-1.926 1.026,0 0,-1.705 -2.947,0 0,7.642 -4.556,0 0,1.412 -4.377,0 0,-1.412 -2.284,0 0,-13.322 -2.977,0 0,1.233 -10.697,0 0,-1.233 -0.877,0 0,-7.468 -4.542,0 0,-14.482 851,0 z"
           style="fill:#374550;fill-opacity:1;fill-rule:evenodd;stroke:none"
           id="path4178"
           inkscape:connector-curvature="0" /><g
           id="g4180"
           transform="translate(425.7139,196.2783)"><path
             d="m 0,0 -0.271,0 -0.156,0 0,2.199 c 0,0.145 0.092,0.257 0.156,0.378 l 0,0.165 C -0.109,2.605 0,2.424 0,2.199 L 0,0 Z"
             style="fill:#231f20;fill-opacity:1;fill-rule:evenodd;stroke:none"
             id="path4182"
             inkscape:connector-curvature="0" /></g><g
           id="g4184"
           transform="translate(426.0498,206.5771)"><path
             d="M 0,0 -1.1,-0.742 0,0.53 0,0 Z"
             style="fill:#231f20;fill-opacity:1;fill-rule:evenodd;stroke:none"
             id="path4186"
             inkscape:connector-curvature="0" /></g><g
           id="g4188"
           transform="translate(424.9463,207.1074)"><path
             d="M 0,0 1.107,-1.28 0,-0.536 0,0 Z"
             style="fill:#231f20;fill-opacity:1;fill-rule:evenodd;stroke:none"
             id="path4190"
             inkscape:connector-curvature="0" /></g><path
           d="m 0,0 851,0 0,16.618 -851,0 L 0,0 Z"
           style="fill:#374550;fill-opacity:1;fill-rule:nonzero;stroke:none"
           id="path4192"
           inkscape:connector-curvature="0" /><g
           id="g4194"
           transform="translate(41.8066,51.8701)"><path
             d="m 0,0 c 7.562,0 13.454,6.478 13.454,15.516 0,8.939 -5.892,15.425 -13.454,15.425 -7.565,0 -13.458,-6.582 -13.458,-15.526 C -13.458,6.383 -7.565,0 0,0 m -27.016,15.415 c 0,14.341 10.316,26.722 27.016,26.722 16.697,0 26.913,-12.381 26.913,-26.722 0,-14.143 -10.116,-26.618 -26.913,-26.618 -16.8,0 -27.016,12.475 -27.016,26.618"
             style="fill:#374550;fill-opacity:1;fill-rule:nonzero;stroke:none"
             id="path4196"
             inkscape:connector-curvature="0" /></g><g
           id="g4198"
           transform="translate(117.2373,67.4883)"><path
             d="m 0,0 c 0,8.64 -6.089,15.323 -14.242,15.323 -5.008,0 -10.704,-3.635 -12.474,-8.648 l 0,-12.08 c 2.359,-5.796 7.662,-10.213 13.262,-10.213 C -5.501,-15.618 0,-8.154 0,0 m -26.716,-16.804 0,-29.955 -13.162,0 0,72.393 11.493,0 0,-8.837 c 3.831,5.99 10.021,9.722 17.777,9.722 13.85,0 24.065,-11.985 24.065,-26.519 0,-15.033 -9.427,-26.821 -22.592,-26.821 -7.953,0 -14.243,3.929 -17.581,10.017"
             style="fill:#374550;fill-opacity:1;fill-rule:nonzero;stroke:none"
             id="path4200"
             inkscape:connector-curvature="0" /></g><g
           id="g4202"
           transform="translate(176.7598,71.709)"><path
             d="M 0,0 C -0.688,7.663 -6.289,12.769 -13.458,12.769 -20.531,12.769 -26.127,7.663 -26.721,0 L 0,0 Z m -40.47,-4.619 c 0,14.64 10.412,26.917 27.208,26.917 16.796,0 26.816,-12.474 26.816,-26.424 0,-1.669 -0.097,-3.339 -0.291,-4.42 l -39.786,0 c 0.688,-8.052 6.781,-12.87 13.652,-12.87 5.21,0 10.513,2.751 12.183,6.973 l 11.296,-3.14 c -3.731,-7.858 -12.574,-13.459 -23.965,-13.459 -16.601,0 -27.113,12.181 -27.113,26.423"
             style="fill:#374550;fill-opacity:1;fill-rule:nonzero;stroke:none"
             id="path4204"
             inkscape:connector-curvature="0" /></g><g
           id="g4206"
           transform="translate(246.2021,41.6523)"><path
             d="m 0,0 -13.162,0 0,28.876 c 0,8.256 -3.046,11.887 -8.153,11.887 -5.306,0 -11.392,-4.517 -13.358,-10.706 l 0,-30.057 -13.162,0 0,51.47 11.884,0 0,-9.526 c 3.833,6.481 11.392,10.41 20.431,10.41 C -2.65,52.354 0,42.14 0,32.118 L 0,0 Z"
             style="fill:#374550;fill-opacity:1;fill-rule:nonzero;stroke:none"
             id="path4208"
             inkscape:connector-curvature="0" /></g><g
           id="g4210"
           transform="translate(318.293,60.5078)"><path
             d="m 0,0 0,12.282 c -2.157,5.696 -7.953,10.022 -13.358,10.022 -7.957,0 -13.458,-7.468 -13.458,-15.722 0,-8.547 6.092,-15.22 14.242,-15.22 5.013,0 10.709,3.632 12.574,8.638 m -40.37,6.878 c 0,14.832 9.528,26.621 22.984,26.621 7.467,0 13.951,-4.127 17.291,-9.92 l 0,29.27 13.161,0 0,-56.578 c 0,-2.75 0.985,-3.83 3.538,-3.931 l 0,-11.195 c -2.654,-0.494 -4.714,-0.689 -6.289,-0.689 -4.81,0.099 -7.561,2.357 -8.154,6.09 l -0.292,3.537 c -3.734,-6.485 -10.708,-9.924 -17.877,-9.924 -14.246,0 -24.362,11.788 -24.362,26.719"
             style="fill:#374550;fill-opacity:1;fill-rule:nonzero;stroke:none"
             id="path4212"
             inkscape:connector-curvature="0" /></g><g
           id="g4214"
           transform="translate(373.5937,54.6182)"><path
             d="m 0,0 c 1.373,1.079 2.155,2.453 2.155,3.729 l 0,5.897 c -3.14,1.178 -7.067,1.967 -10.411,1.967 -6.777,0 -11.588,-3.44 -11.588,-8.155 0,-4.418 3.83,-7.763 8.837,-7.763 4.421,0 8.743,1.67 11.007,4.325 m -32.32,2.357 c 0,9.824 9.038,16.599 21.902,16.599 4.621,0 9.235,-0.784 12.573,-2.258 l 0,2.947 c 0,6.778 -3.925,10.607 -11.492,10.607 -5.5,0 -10.607,-1.964 -16.107,-5.796 l -4.027,8.354 c 6.68,4.416 13.749,6.579 21.411,6.579 14.736,0 23.382,-7.562 23.382,-21.217 l 0,-16.011 c 0,-2.75 0.981,-3.83 3.534,-3.932 l 0,-11.195 c -2.453,-0.493 -4.716,-0.688 -6.284,-0.688 -4.912,0.098 -7.467,2.452 -8.154,6.09 l -0.297,2.847 c -4.615,-5.992 -11.391,-9.234 -18.857,-9.234 -10.02,0 -17.584,6.977 -17.584,16.308"
             style="fill:#374550;fill-opacity:1;fill-rule:nonzero;stroke:none"
             id="path4216"
             inkscape:connector-curvature="0" /></g><g
           id="g4218"
           transform="translate(431.542,44.3018)"><path
             d="m 0,0 c -3.54,-1.567 -9.039,-3.535 -14.634,-3.535 -7.268,0 -13.362,3.535 -13.362,12.67 l 0,29.571 -6.677,0 0,10.114 6.677,0 0,16.7 13.167,0 0,-16.7 10.898,0 0,-10.114 -10.898,0 0,-25.147 c 0,-3.636 2.257,-5.013 5.006,-5.013 2.75,0 5.599,1.182 7.17,1.864 L 0,0 Z"
             style="fill:#374550;fill-opacity:1;fill-rule:nonzero;stroke:none"
             id="path4220"
             inkscape:connector-curvature="0" /></g><g
           id="g4222"
           transform="translate(467,54.6182)"><path
             d="m 0,0 c 1.374,1.079 2.158,2.453 2.158,3.729 l 0,5.897 c -3.142,1.178 -7.07,1.967 -10.413,1.967 -6.777,0 -11.587,-3.44 -11.587,-8.155 0,-4.418 3.83,-7.763 8.837,-7.763 4.42,0 8.742,1.67 11.005,4.325 m -32.32,2.357 c 0,9.824 9.038,16.599 21.904,16.599 4.619,0 9.234,-0.784 12.574,-2.258 l 0,2.947 c 0,6.778 -3.928,10.607 -11.493,10.607 -5.501,0 -10.606,-1.964 -16.108,-5.796 l -4.029,8.354 c 6.684,4.416 13.75,6.579 21.414,6.579 14.734,0 23.38,-7.562 23.38,-21.217 l 0,-16.011 c 0,-2.75 0.981,-3.83 3.535,-3.932 l 0,-11.195 c -2.454,-0.493 -4.715,-0.688 -6.284,-0.688 -4.912,0.098 -7.467,2.452 -8.155,6.09 l -0.295,2.847 c -4.615,-5.992 -11.394,-9.234 -18.858,-9.234 -10.02,0 -17.585,6.977 -17.585,16.308"
             style="fill:#374550;fill-opacity:1;fill-rule:nonzero;stroke:none"
             id="path4224"
             inkscape:connector-curvature="0" /></g><g
           id="g4226"
           transform="translate(558.0488,59.626)"><path
             d="m 0,0 0,14.733 c -2.458,6.682 -9.823,11.985 -16.309,11.985 -10.114,0 -16.796,-9.431 -16.796,-19.254 0,-10.311 7.663,-18.96 17.584,-18.96 6.19,0 14.244,5.109 15.521,11.496 m -42.043,7.564 c 0,14.54 9.728,26.622 23.281,26.622 8.25,0 15.029,-4.914 18.762,-11.101 l 0,30.645 8.643,0 0,-61.097 c 0,-2.162 0.788,-3.047 2.749,-3.142 l 0,-7.465 c -1.373,-0.197 -2.552,-0.392 -3.433,-0.392 -3.932,0 -6.485,2.359 -6.587,5.205 l -0.197,4.815 c -4.025,-6.587 -11.39,-10.613 -18.76,-10.613 -14.243,0 -24.458,12.377 -24.458,26.523"
             style="fill:#ec1c24;fill-opacity:1;fill-rule:nonzero;stroke:none"
             id="path4228"
             inkscape:connector-curvature="0" /></g><g
           id="g4230"
           transform="translate(580.7324,62.1777)"><path
             d="m 0,0 0,30.749 8.647,0 0,-29.073 c 0,-10.515 3.634,-15.724 10.903,-15.724 7.069,0 13.849,4.819 16.891,12.678 l 0,32.119 8.647,0 0,-40.668 c 0,-2.162 0.783,-3.047 2.75,-3.142 l 0,-7.464 c -1.471,-0.198 -2.554,-0.393 -3.437,-0.393 -3.932,0 -6.29,2.061 -6.486,5.205 l -0.291,6.188 C 33.104,-17.187 25.146,-21.511 16.31,-21.511 5.599,-21.511 0,-14.143 0,0"
             style="fill:#ec1c24;fill-opacity:1;fill-rule:nonzero;stroke:none"
             id="path4232"
             inkscape:connector-curvature="0" /></g><g
           id="g4234"
           transform="translate(667.5625,85.3633)"><path
             d="m 0,0 c -8.646,-0.195 -15.719,-4.619 -18.469,-12.083 l 0,-31.628 -8.644,0 0,51.274 8.056,0 0,-11.885 c 3.537,7.071 9.726,12.276 16.209,12.276 1.274,0 2.16,0 2.848,-0.095 L 0,0 Z"
             style="fill:#ec1c24;fill-opacity:1;fill-rule:nonzero;stroke:none"
             id="path4236"
             inkscape:connector-curvature="0" /></g><g
           id="g4238"
           transform="translate(717.7549,67.0898)"><path
             d="m 0,0 c 0,10.021 -6.876,19.254 -16.801,19.254 -7.365,0 -13.257,-5.5 -16.303,-11.984 l 0,-14.833 c 1.277,-6.483 9.331,-11.397 15.52,-11.397 C -7.268,-18.96 0,-9.824 0,0 m -34.089,-15.81 0,-9.627 -7.661,0 0,71.704 8.646,0 0,-30.646 c 4.324,6.68 10.608,11.101 18.958,11.101 C -0.1,26.722 8.838,13.754 8.838,0 c 0,-14.438 -10.51,-26.423 -24.261,-26.423 -7.958,0 -14.931,4.323 -18.666,10.613"
             style="fill:#ec1c24;fill-opacity:1;fill-rule:nonzero;stroke:none"
             id="path4240"
             inkscape:connector-curvature="0" /></g><g
           id="g4242"
           transform="translate(767.2559,53.2393)"><path
             d="m 0,0 c 1.275,1.473 1.863,2.951 1.863,4.026 l 0,7.569 c -4.027,1.572 -8.743,2.451 -12.964,2.451 -8.837,0 -14.735,-3.928 -14.735,-10.115 0,-5.3 4.323,-10.017 11.592,-10.017 5.501,0 11.297,2.649 14.244,6.086 m -34.085,3.146 c 0,9.724 8.939,16.108 21.609,16.108 5.008,0 10.413,-0.981 14.339,-2.553 l 0,4.128 c 0,8.347 -5.009,13.453 -13.552,13.453 -5.305,0 -10.709,-2.063 -16.31,-5.988 l -2.844,5.598 c 6.578,4.422 13.062,6.68 20.133,6.68 13.066,0 21.22,-7.664 21.22,-20.626 l 0,-20.926 c 0,-2.163 0.784,-3.047 2.75,-3.142 l 0,-7.465 c -1.276,-0.197 -2.553,-0.392 -3.538,-0.392 -2.847,0 -6.284,1.474 -6.479,5.205 l -0.196,3.631 c -4.62,-6.187 -12.478,-9.429 -19.453,-9.429 -10.314,0 -17.679,6.977 -17.679,15.718"
             style="fill:#ec1c24;fill-opacity:1;fill-rule:nonzero;stroke:none"
             id="path4244"
             inkscape:connector-curvature="0" /></g><g
           id="g4246"
           transform="translate(836.209,41.6523)"><path
             d="m 0,0 -8.647,0 0,28.681 c 0,10.905 -3.338,15.715 -10.115,15.715 -7.074,0 -14.733,-5.697 -17.094,-13.452 l 0,-30.944 -8.645,0 0,51.274 7.861,0 0,-11 c 4.027,7.169 12.279,11.885 21.318,11.885 C -3.439,52.159 0,43.021 0,30.645 L 0,0 Z"
             style="fill:#ec1c24;fill-opacity:1;fill-rule:nonzero;stroke:none"
             id="path4248"
             inkscape:connector-curvature="0" /></g></g></g></g></svg>